<svg xmlns="http://www.w3.org/2000/svg" width="59.117" height="62.758" viewBox="0 0 59.117 62.758">
  <g id="admin-with-cogwheels" transform="translate(-13.766)">
    <path id="Path_8474" data-name="Path 8474" d="M234.842,94.04c-.08-1.5-1.61-1.242-3.1-1.242A13.217,13.217,0,0,1,234.842,94.04Z" transform="translate(-189.147 -80.511)"/>
    <path id="Path_8475" data-name="Path 8475" d="M93.9,73.928a6.179,6.179,0,0,0-3.83,11.025,13.378,13.378,0,0,1,8.845-8.441A6.184,6.184,0,0,0,93.9,73.928Z" transform="translate(-64.165 -64.151)" fill="#0d2b51"/>
    <path id="Path_8476" data-name="Path 8476" d="M17.763,19.654a12.855,12.855,0,0,0,.906,2.174l-1.9,1.9a1.312,1.312,0,0,0,0,1.853l3.356,3.357a1.317,1.317,0,0,0,1.855,0l1.9-1.9c.285.151.6.244.9.374,0-.022,0-.044,0-.066a19.525,19.525,0,0,1,.5-4.4A8.279,8.279,0,1,1,36.933,11.916a14.437,14.437,0,0,1,4.678.137,12.5,12.5,0,0,0-.809-1.942l1.9-1.906a1.3,1.3,0,0,0,0-1.852L39.353,3A1.306,1.306,0,0,0,37.5,3L35.592,4.9A12.267,12.267,0,0,0,33.418,4V1.309A1.307,1.307,0,0,0,32.109,0H27.363a1.312,1.312,0,0,0-1.31,1.309V4a12.4,12.4,0,0,0-2.175.9L21.975,3a1.31,1.31,0,0,0-1.852,0L16.764,6.354a1.315,1.315,0,0,0,0,1.854l1.9,1.9a12.534,12.534,0,0,0-.9,2.174h-2.69a1.31,1.31,0,0,0-1.31,1.311v4.746a1.311,1.311,0,0,0,1.31,1.31Z" fill="#0d2b51"/>
    <path id="Path_8477" data-name="Path 8477" d="M291.361,257.461a6.742,6.742,0,1,0-6.8-11.637,24.377,24.377,0,0,1-2.883,6.9A20.273,20.273,0,0,1,291.361,257.461Z" transform="translate(-232.486 -212.412)" fill="#0d2b51"/>
    <path id="Path_8478" data-name="Path 8478" d="M325.055,180.323a1.415,1.415,0,0,0-1.413-1.414h-2.9a13.412,13.412,0,0,0-.978-2.347l2.056-2.056a1.412,1.412,0,0,0,0-2l-3.619-3.62a1.41,1.41,0,0,0-2,0l-2.06,2.057a13.2,13.2,0,0,0-2.347-.975v-2.9a1.411,1.411,0,0,0-1.411-1.413h-5.12a1.393,1.393,0,0,0-.891.341,19.253,19.253,0,0,1,.667,5.1,24.51,24.51,0,0,1-.259,3.494,8.752,8.752,0,0,1,3.041-.572,8.856,8.856,0,0,1,4.789,16.315,20.227,20.227,0,0,1,4.122,6.873,1.45,1.45,0,0,0,.468.09,1.411,1.411,0,0,0,1-.414l3.621-3.62a1.422,1.422,0,0,0,0-2l-2.06-2.057a13.355,13.355,0,0,0,.978-2.347h2.9a1.417,1.417,0,0,0,1.415-1.414Z" transform="translate(-252.174 -143.746)" fill="#0d2b51"/>
    <path id="Path_8479" data-name="Path 8479" d="M66.922,338.4a17.107,17.107,0,0,0-14.694-11.508,11.229,11.229,0,0,1-8.164,3.881,11.224,11.224,0,0,1-8.161-3.881,17.107,17.107,0,0,0-14.7,11.509l-1.214,3.572a3.367,3.367,0,0,0,3.187,4.448h41.77a3.365,3.365,0,0,0,3.187-4.448Z" transform="translate(-5.248 -283.659)" fill="#00d563"/>
    <path id="Path_8480" data-name="Path 8480" d="M120.842,124.962c0,8.013,4.878,16.61,10.891,16.61s10.893-8.6,10.893-16.61C142.625,108.353,120.842,108.32,120.842,124.962Z" transform="translate(-92.916 -97.617)" fill="#00d563"/>
  </g>
</svg>
