<svg id="aim" xmlns="http://www.w3.org/2000/svg" width="62.063" height="62.063" viewBox="0 0 62.063 62.063">
  <path id="Path_8466" data-name="Path 8466" d="M91.009,226.7a10.673,10.673,0,1,0,19.6-5.834l-4.68,4.69a4.4,4.4,0,1,1-3.116-3.109l4.68-4.69A10.665,10.665,0,0,0,91.009,226.7Z" transform="translate(-78.94 -187.383)" fill="#0d2b51"/>
  <g id="Group_12407" data-name="Group 12407">
    <path id="Path_8467" data-name="Path 8467" d="M37.816,147.763a15.089,15.089,0,1,1-6.1-12.106l5.452-5.463a22.764,22.764,0,1,0,3.116,3.109l-5.452,5.463A14.994,14.994,0,0,1,37.816,147.763Z" transform="translate(0 -108.442)" fill="#00d563"/>
    <path id="Path_8468" data-name="Path 8468" d="M296.911,16.686l8.242-8.242-7.334-1.11L296.708,0l-8.242,8.242.7,4.708-8.911,8.8a22.95,22.95,0,0,1,3.116,3.109l8.987-8.877Z" transform="translate(-243.089)" fill="#0d2b51"/>
  </g>
</svg>
