<svg xmlns="http://www.w3.org/2000/svg" width="38.784" height="41.16" viewBox="0 0 38.784 41.16">
  <g id="artificial-intelligence" transform="translate(-12.86)">
    <g id="Group_12358" data-name="Group 12358" transform="translate(12.86)">
      <g id="Group_12357" data-name="Group 12357" transform="translate(0)">
        <path id="Path_8430" data-name="Path 8430" d="M35.71,35.016V5.965a5.964,5.964,0,1,0-5.965,5.965.462.462,0,0,1,0,.924,6.886,6.886,0,0,1-6.827-5.975,5.963,5.963,0,0,0-7.707,7.973,5.888,5.888,0,0,0,.614,1.054A5.983,5.983,0,0,0,23.1,17.825a.462.462,0,0,1,.381.842,6.833,6.833,0,0,1-2.826.609A6.913,6.913,0,0,1,15.351,16.8a5.962,5.962,0,0,0,.925,10.236c.03-.079.061-.159.094-.236a6.888,6.888,0,0,1,9.067-3.564.462.462,0,0,1-.37.847,5.964,5.964,0,0,0-7.85,3.085,6.4,6.4,0,0,0-.231.622,5.965,5.965,0,0,0,5.878,7.723c0-.106-.008-.213-.008-.32a6.9,6.9,0,0,1,6.889-6.889.462.462,0,0,1,0,.924A5.965,5.965,0,1,0,35.71,35.2a.5.5,0,0,1,.008-.091A.544.544,0,0,1,35.71,35.016Zm-1.025-4.645H33.478a.462.462,0,0,1,0-.924h1.207a.462.462,0,0,1,0,.924Zm0-4.391H31.95a.462.462,0,1,1,0-.924h2.735a.462.462,0,0,1,0,.924Zm0-4.939H30.038a.462.462,0,0,1,0-.924h4.647a.462.462,0,0,1,0,.924Zm0-4.937H31.95a.462.462,0,1,1,0-.924h2.735a.462.462,0,0,1,0,.924Zm0-4.392H33.478a.462.462,0,1,1,0-.924h1.207a.462.462,0,1,1,0,.924Z" transform="translate(-12.86)" fill="#00d563"/>
      </g>
    </g>
    <g id="Group_12360" data-name="Group 12360" transform="translate(37.196 18.632)">
      <g id="Group_12359" data-name="Group 12359">
        <path id="Path_8431" data-name="Path 8431" d="M281.425,201.64a1.95,1.95,0,0,0-1.89,1.485h-2.842a.462.462,0,0,0,0,.924h2.842a1.947,1.947,0,1,0,1.89-2.409Z" transform="translate(-276.231 -201.64)" fill="#0d2b51"/>
      </g>
    </g>
    <g id="Group_12362" data-name="Group 12362" transform="translate(37.196 29.447)">
      <g id="Group_12361" data-name="Group 12361">
        <path id="Path_8432" data-name="Path 8432" d="M288.73,321.723a1.948,1.948,0,0,0-1.89,1.485h-3.813l-4.393-4.394-.029-.023a.374.374,0,0,0-.042-.033.384.384,0,0,0-.047-.026.265.265,0,0,0-.032-.017.365.365,0,0,0-.055-.017c-.011,0-.021-.007-.031-.009a.446.446,0,0,0-.091-.009h-1.616a.462.462,0,1,0,0,.924h1.425L282.511,324a.487.487,0,0,0,.064.052l.005,0a.447.447,0,0,0,.064.035l.016.007a.423.423,0,0,0,.075.023l.011,0a.442.442,0,0,0,.092.009h4a1.947,1.947,0,1,0,1.891-2.409Z" transform="translate(-276.23 -318.679)" fill="#0d2b51"/>
      </g>
    </g>
    <g id="Group_12364" data-name="Group 12364" transform="translate(37.196 25.056)">
      <g id="Group_12363" data-name="Group 12363">
        <path id="Path_8433" data-name="Path 8433" d="M285.977,271.786a1.951,1.951,0,0,0-1.891,1.486h-.948l-1.978-1.977,0,0a.468.468,0,0,0-.067-.054c-.012-.008-.026-.014-.039-.021s-.026-.015-.04-.021-.036-.011-.055-.017-.021-.007-.032-.009a.44.44,0,0,0-.092-.009h-4.141a.462.462,0,1,0,0,.924h3.951l1.975,1.975a.464.464,0,0,0,.075.061l.006,0a.509.509,0,0,0,.074.039l.012,0a.455.455,0,0,0,.163.03h1.141a1.946,1.946,0,1,0,1.89-2.41Z" transform="translate(-276.229 -271.16)" fill="#0d2b51"/>
      </g>
    </g>
    <g id="Group_12366" data-name="Group 12366" transform="translate(37.196 11.582)">
      <g id="Group_12365" data-name="Group 12365">
        <path id="Path_8434" data-name="Path 8434" d="M285.979,125.34a1.949,1.949,0,0,0-1.89,1.486h-1.141c-.014,0-.027,0-.041,0a.442.442,0,0,0-.049.006.507.507,0,0,0-.054.016.335.335,0,0,0-.032.01.466.466,0,0,0-.056.03c-.007,0-.016.007-.023.013a.37.37,0,0,0-.072.059l-1.977,1.976h-3.951a.462.462,0,0,0,0,.924h4.142a.438.438,0,0,0,.091-.009l.027-.007c.019-.006.04-.011.059-.018s.024-.013.035-.019a.408.408,0,0,0,.044-.023.574.574,0,0,0,.063-.052l.006-.006,1.977-1.977h.949a1.947,1.947,0,1,0,1.891-2.41Z" transform="translate(-276.231 -125.34)" fill="#0d2b51"/>
      </g>
    </g>
    <g id="Group_12368" data-name="Group 12368" transform="translate(37.196 4.774)">
      <g id="Group_12367" data-name="Group 12367">
        <path id="Path_8435" data-name="Path 8435" d="M288.73,51.67a1.951,1.951,0,0,0-1.891,1.486h-4a.448.448,0,0,0-.092.009l-.019.006a.477.477,0,0,0-.067.021l-.02.01a.459.459,0,0,0-.059.032l-.013.01a.439.439,0,0,0-.056.046l-4.393,4.393h-1.426a.462.462,0,1,0,0,.924h1.616a.461.461,0,0,0,.327-.136l4.394-4.393h3.812a1.946,1.946,0,1,0,1.89-2.41Z" transform="translate(-276.23 -51.67)" fill="#0d2b51"/>
      </g>
    </g>
  </g>
</svg>
