<svg xmlns="http://www.w3.org/2000/svg" width="34.594" height="30.405" viewBox="0 0 34.594 30.405">
  <g id="balance" transform="translate(0 -31)">
    <path id="Path_8365" data-name="Path 8365" d="M0,273.027H15.4L7.3,285.189h20L19.19,273.027h15.4V271H0Z" transform="translate(0 -223.784)" fill="#0d2b51"/>
    <path id="Path_8366" data-name="Path 8366" d="M280.108,45.511c4.837-4.112,8.108-6.224,8.108-9.689A4.647,4.647,0,0,0,283.655,31a5.332,5.332,0,0,0-3.547,1.348A5.333,5.333,0,0,0,276.561,31,4.647,4.647,0,0,0,272,35.822C272,39.228,275.112,41.263,280.108,45.511Z" transform="translate(-253.622 0)" fill="#00d563"/>
    <path id="Path_8367" data-name="Path 8367" d="M14.189,35.054H10.135V31H4.054v4.054H0v4.054H14.189ZM6.081,33.027H8.108v2.027H6.081Z" fill="#00d563"/>
    <path id="Path_8368" data-name="Path 8368" d="M0,181H14.189v4.054H0Z" transform="translate(0 -139.865)" fill="#00d563"/>
  </g>
</svg>
