<svg xmlns="http://www.w3.org/2000/svg" width="36.642" height="36.642" viewBox="0 0 36.642 36.642">
  <g id="blockchain" transform="translate(0 0)">
    <path id="Path_8424" data-name="Path 8424" d="M0,363.534a1.073,1.073,0,0,0,.594.96l5.919,2.924v-7.924L0,356.273Zm0,0" transform="translate(0 -330.776)" fill="#00d563"/>
    <path id="Path_8425" data-name="Path 8425" d="M121,359.49v7.924l5.848-2.924a1.073,1.073,0,0,0,.593-.96v-2.557h6.441v2.557a1.073,1.073,0,0,0,.594.96l5.848,2.924V359.49l-6.441-3.221v2.557h-6.441v-2.557Zm0,0" transform="translate(-112.34 -330.772)" fill="#0d2b51"/>
    <path id="Path_8426" data-name="Path 8426" d="M9.713,98.75a1.073,1.073,0,0,0-.96,0l-6.979,3.58,7.459,3.694,7.388-3.694-3.135-1.625,3.009-5.487,2.4,1.272v-8l-6.441-3.221v7.261a1.074,1.074,0,0,0,.594.96l1.526.763-2.994,5.46Zm0,0" transform="translate(-1.647 -79.17)" fill="#0d2b51"/>
    <path id="Path_8427" data-name="Path 8427" d="M421,367.415l5.919-2.924a1.073,1.073,0,0,0,.593-.96V356.27L421,359.49Zm0,0" transform="translate(-390.87 -330.772)" fill="#00d563"/>
    <path id="Path_8428" data-name="Path 8428" d="M277.441,92.531V85.27L271,88.491v8l2.4-1.271,3.009,5.487-3.135,1.625,7.388,3.694,7.459-3.694-6.979-3.581a1.073,1.073,0,0,0-.96,0l-1.866.968-2.993-5.46,1.526-.763a1.074,1.074,0,0,0,.593-.96Zm0,0" transform="translate(-251.605 -79.167)" fill="#0d2b51"/>
    <path id="Path_8429" data-name="Path 8429" d="M159.681.114l-6.908,3.652,7.388,3.694,7.388-3.694L160.641.114a1.074,1.074,0,0,0-.96,0Zm0,0" transform="translate(-141.84 0)" fill="#00d563"/>
  </g>
</svg>
