<svg id="cms" xmlns="http://www.w3.org/2000/svg" width="37.159" height="34.836" viewBox="0 0 37.159 34.836">
  <path id="Path_8396" data-name="Path 8396" d="M113.862,422.177h-3.57L109.566,420H96.385l-.726,2.177h-3.57a1.089,1.089,0,0,0,0,2.177h21.773a1.089,1.089,0,1,0,0-2.177Zm0,0" transform="translate(-84.396 -389.518)" fill="#0d2b51"/>
  <path id="Path_8397" data-name="Path 8397" d="M392.089,90a1.089,1.089,0,1,0,1.089,1.089A1.089,1.089,0,0,0,392.089,90Zm0,0" transform="translate(-362.623 -83.468)" fill="#0d2b51"/>
  <path id="Path_8398" data-name="Path 8398" d="M33.821,0H3.266A3.27,3.27,0,0,0,0,3.266V21.773H6.6V18.507a1.088,1.088,0,0,1,1.089-1.089H9.375a9.689,9.689,0,0,1,.387-.932L8.572,15.3a1.088,1.088,0,0,1,0-1.539l3.079-3.079a1.088,1.088,0,0,1,1.539,0l1.191,1.191a9.739,9.739,0,0,1,.932-.388V9.8A1.088,1.088,0,0,1,16.4,8.709h4.355A1.088,1.088,0,0,1,21.846,9.8V11.48a9.768,9.768,0,0,1,.932.388l1.191-1.191a1.089,1.089,0,0,1,1.539,0l3.079,3.079a1.088,1.088,0,0,1,0,1.539L27.4,16.486a9.718,9.718,0,0,1,.387.932h1.682a1.088,1.088,0,0,1,1.089,1.089v3.266h6.6V3.266A3.333,3.333,0,0,0,33.821,0ZM29.466,10.886a3.266,3.266,0,1,1,3.266-3.266A3.27,3.27,0,0,1,29.466,10.886Zm0,0" fill="#00d563"/>
  <path id="Path_8399" data-name="Path 8399" d="M211,243.266a3.245,3.245,0,0,0,.211,1.089h6.109A3.256,3.256,0,1,0,211,243.266Zm0,0" transform="translate(-195.686 -222.582)" fill="#0d2b51"/>
  <path id="Path_8400" data-name="Path 8400" d="M123.451,157.893a1.089,1.089,0,0,1-1.055.816H121v2.177h4.5a5.446,5.446,0,1,1,10.6,0h4.5v-2.177h-1.4a1.089,1.089,0,0,1-1.055-.816,7.482,7.482,0,0,0-.806-1.94,1.089,1.089,0,0,1,.168-1.323l.99-.991-1.539-1.539-.991.991a1.084,1.084,0,0,1-1.324.167,7.482,7.482,0,0,0-1.939-.806,1.089,1.089,0,0,1-.816-1.055V150h-2.177v1.4a1.089,1.089,0,0,1-.816,1.055,7.482,7.482,0,0,0-1.939.806,1.085,1.085,0,0,1-1.324-.167l-.991-.991-1.539,1.539.99.991a1.089,1.089,0,0,1,.168,1.323,7.483,7.483,0,0,0-.806,1.94Zm0,0" transform="translate(-112.218 -139.113)" fill="#0d2b51"/>
  <path id="Path_8401" data-name="Path 8401" d="M0,331.089a3.27,3.27,0,0,0,3.266,3.266H33.821a3.333,3.333,0,0,0,3.339-3.266V330H0Zm0,0" transform="translate(0 -306.05)" fill="#0d2b51"/>
</svg>
