<svg xmlns="http://www.w3.org/2000/svg" width="39.126" height="37.864" viewBox="0 0 39.126 37.864">
  <g id="communications" transform="translate(0 -0.5)">
    <path id="Path_8458" data-name="Path 8458" d="M171.525,90.5h-1.146v10.316a8.034,8.034,0,0,1-8.024,8.024H153.96l-4.4,3.39a5.715,5.715,0,0,0,3.473,1.195h9.175l10.464,8.062V113.31a5.741,5.741,0,0,0,4.585-5.616V96.231a5.738,5.738,0,0,0-5.731-5.731Zm0,0" transform="translate(-138.13 -83.122)" fill="#0d2b51"/>
    <path id="Path_8459" data-name="Path 8459" d="M15.049,23.425h9.175a5.738,5.738,0,0,0,5.731-5.731V6.231A5.738,5.738,0,0,0,24.224.5H5.731A5.738,5.738,0,0,0,0,6.231V17.694A5.741,5.741,0,0,0,4.585,23.31v8.177ZM6.878,6.231h16.2V8.524H6.878Zm0,4.585h16.2v2.293H6.878Zm0,4.585H18.493v2.293H6.878Zm0,0" fill="#00d563"/>
  </g>
</svg>
