<svg id="contact" xmlns="http://www.w3.org/2000/svg" width="22.369" height="20" viewBox="0 0 22.369 20">
  <g id="Group_11034" data-name="Group 11034">
    <path id="Path_6466" data-name="Path 6466" d="M17.038,117.795l-3.771-2.375a.4.4,0,0,0-.519.08l-1.1,1.333a1.223,1.223,0,0,1-1.508.294l-.2-.105a13.217,13.217,0,0,1-3.454-2.557A12.611,12.611,0,0,1,3.778,111.2l-.112-.192a1.072,1.072,0,0,1,.311-1.424l1.411-1.038a.353.353,0,0,0,.084-.491l-2.513-3.563a.4.4,0,0,0-.519-.111l-1.578.894a1.449,1.449,0,0,0-.695.846c-.518,1.783-.082,4.9,4.936,9.645s8.322,5.154,10.21,4.664a1.509,1.509,0,0,0,.9-.657l.946-1.49A.353.353,0,0,0,17.038,117.795Z" transform="translate(0 -100.591)" fill="#fff"/>
    <path id="Path_6467" data-name="Path 6467" d="M116.818,13.76a.224.224,0,0,0-.156-.06H99.921a.224.224,0,0,0-.156.06.2.2,0,0,0-.064.147V19.4l.949,1.345a1.083,1.083,0,0,1-.258,1.505l-1.41,1.038a.347.347,0,0,0-.1.461l.115.2a9.516,9.516,0,0,0,1.333,1.836h16.334a.213.213,0,0,0,.22-.2V13.907A.2.2,0,0,0,116.818,13.76Zm-11.351,6.864v0l-4.093,4.142a.416.416,0,0,1-.565.019.363.363,0,0,1-.02-.533l4.093-4.14a.416.416,0,0,1,.565-.019A.363.363,0,0,1,105.466,20.624Zm2.825-.3a1.376,1.376,0,0,1-.8-.249l-6.678-4.784a.364.364,0,0,1-.076-.53.416.416,0,0,1,.561-.072l6.675,4.784a.565.565,0,0,0,.634,0l6.677-4.784a.415.415,0,0,1,.56.073.364.364,0,0,1-.077.529l-6.678,4.784A1.376,1.376,0,0,1,108.291,20.327Zm7.508,4.456a.416.416,0,0,1-.565-.018l-4.092-4.142a.363.363,0,0,1,.032-.522.417.417,0,0,1,.553.009l4.092,4.14A.363.363,0,0,1,115.8,24.783Z" transform="translate(-94.513 -13.7)" fill="#0d2b51"/>
  </g>
</svg>
