<svg id="contact" xmlns="http://www.w3.org/2000/svg" width="25.744" height="24.366" viewBox="0 0 25.744 24.366">
  <g id="Group_11034" data-name="Group 11034">
    <path id="Path_6466" data-name="Path 6466" d="M19.609,120.734l-4.34-2.893a.447.447,0,0,0-.6.1l-1.264,1.625a1.355,1.355,0,0,1-1.736.358l-.234-.128a15.264,15.264,0,0,1-3.975-3.115A15.245,15.245,0,0,1,4.348,112.7l-.129-.234a1.354,1.354,0,0,1,.358-1.735L6.2,109.468a.447.447,0,0,0,.1-.6l-2.893-4.34a.445.445,0,0,0-.6-.135L.992,105.484a1.747,1.747,0,0,0-.8,1.03c-.6,2.172-.095,5.975,5.681,11.751s9.578,6.279,11.751,5.682a1.747,1.747,0,0,0,1.03-.8l1.088-1.816A.444.444,0,0,0,19.609,120.734Z" transform="translate(0 -99.774)" fill="#00d563"/>
    <path id="Path_6467" data-name="Path 6467" d="M119.532,13.773a.25.25,0,0,0-.18-.073H100.085a.25.25,0,0,0-.253.253v6.694l1.093,1.639a1.369,1.369,0,0,1-.3,1.834L99,25.383a.439.439,0,0,0-.119.562l.132.241a11.594,11.594,0,0,0,1.534,2.237h18.8a.251.251,0,0,0,.253-.247V13.953A.25.25,0,0,0,119.532,13.773Zm-13.064,8.363v0l-4.71,5.047a.46.46,0,0,1-.673-.627l4.71-5.044a.46.46,0,0,1,.673.627Zm3.251-.362a1.524,1.524,0,0,1-.92-.3l-7.685-5.828a.461.461,0,1,1,.558-.733l7.682,5.828a.62.62,0,0,0,.729,0l7.684-5.828a.46.46,0,1,1,.556.733l-7.686,5.828A1.524,1.524,0,0,1,109.719,21.773ZM118.36,27.2a.46.46,0,0,1-.65-.023L113,22.133a.46.46,0,0,1,.674-.625l4.709,5.044A.46.46,0,0,1,118.36,27.2Z" transform="translate(-93.861 -13.7)" fill="#0d2b51"/>
  </g>
</svg>
