<svg id="contact" xmlns="http://www.w3.org/2000/svg" width="19.135" height="18.993" viewBox="0 0 19.135 18.993">
  <g id="Group_11034" data-name="Group 11034">
    <path id="Path_6466" data-name="Path 6466" d="M14.575,117.117l-3.226-2.255a.322.322,0,0,0-.444.076L9.966,116.2a.977.977,0,0,1-1.29.279l-.174-.1a11.416,11.416,0,0,1-2.955-2.428,11.846,11.846,0,0,1-2.315-3.1l-.1-.182a1.09,1.09,0,0,1,.266-1.353l1.207-.985a.36.36,0,0,0,.072-.466l-2.15-3.383a.321.321,0,0,0-.444-.105l-1.35.849a1.354,1.354,0,0,0-.594.8c-.443,1.693-.07,4.657,4.223,9.16s7.119,4.894,8.735,4.429a1.31,1.31,0,0,0,.766-.624l.809-1.415A.357.357,0,0,0,14.575,117.117Z" transform="translate(0 -100.779)" fill="#fff"/>
    <path id="Path_6467" data-name="Path 6467" d="M114.218,13.757a.182.182,0,0,0-.134-.057H99.764a.182.182,0,0,0-.134.057.2.2,0,0,0-.054.14v5.218l.812,1.277a1.1,1.1,0,0,1-.221,1.429l-1.206.985a.353.353,0,0,0-.088.438l.1.188a9.066,9.066,0,0,0,1.141,1.743h13.973a.191.191,0,0,0,.188-.193V13.9A.2.2,0,0,0,114.218,13.757Zm-9.711,6.519v0l-3.5,3.934a.331.331,0,0,1-.483.018.371.371,0,0,1-.017-.507l3.5-3.932a.331.331,0,0,1,.483-.018A.371.371,0,0,1,104.507,20.275Zm2.417-.282a1.1,1.1,0,0,1-.684-.237l-5.712-4.543a.371.371,0,0,1-.065-.5.332.332,0,0,1,.48-.068l5.71,4.543a.444.444,0,0,0,.542,0l5.712-4.543a.332.332,0,0,1,.479.069.37.37,0,0,1-.066.5l-5.713,4.543A1.1,1.1,0,0,1,106.924,19.993Zm6.423,4.232a.331.331,0,0,1-.483-.018l-3.5-3.934a.371.371,0,0,1,.028-.5.33.33,0,0,1,.473.008l3.5,3.932A.371.371,0,0,1,113.347,24.225Z" transform="translate(-95.137 -13.7)" fill="#0d2b51"/>
  </g>
</svg>
