<svg xmlns="http://www.w3.org/2000/svg" width="49.689" height="56.021" viewBox="0 0 49.689 56.021">
  <g id="doubt" transform="translate(-28.671)">
    <path id="Path_7309" data-name="Path 7309" d="M168.958,4.468a21.785,21.785,0,0,0-26.434,0,14.352,14.352,0,0,0-5.654,11.176,14,14,0,0,0,3.73,9.348l-1.212,5.614a1.656,1.656,0,0,0,2.143,1.921l7.128-2.376a22.213,22.213,0,0,0,7.083,1.136,20.942,20.942,0,0,0,13.217-4.467,14.352,14.352,0,0,0,5.654-11.176,14.353,14.353,0,0,0-5.654-11.176ZM155.679,23.787a1.656,1.656,0,1,1,1.656-1.656A1.685,1.685,0,0,1,155.679,23.787Zm1.656-7.181v.714a1.656,1.656,0,1,1-3.313,0V15.25a1.656,1.656,0,0,1,1.656-1.656,1.391,1.391,0,1,0-1.316-1.843,1.656,1.656,0,1,1-3.134-1.074,4.7,4.7,0,1,1,6.106,5.928Z" transform="translate(-96.252)" fill="#0d2b51"/>
    <path id="Path_7310" data-name="Path 7310" d="M38.687,425.928a10.663,10.663,0,0,0-9.9,6.727,1.656,1.656,0,0,0,1.542,2.262H47.044a1.656,1.656,0,0,0,1.542-2.262,10.663,10.663,0,0,0-9.9-6.727Z" transform="translate(0 -378.897)" fill="#00d563"/>
    <path id="Path_7311" data-name="Path 7311" d="M76.831,310.822a5.282,5.282,0,1,0-5.282-5.282A5.288,5.288,0,0,0,76.831,310.822Z" transform="translate(-38.144 -267.103)" fill="#00d563"/>
  </g>
</svg>
