<svg id="easy-to-use" xmlns="http://www.w3.org/2000/svg" width="35.088" height="42.845" viewBox="0 0 35.088 42.845">
  <path id="Path_7312" data-name="Path 7312" d="M185.982,7.883a1.255,1.255,0,0,0,1.255-1.255V1.249a1.255,1.255,0,0,0-2.511,0V6.628A1.255,1.255,0,0,0,185.982,7.883Z" transform="translate(-173.145 0)" fill="#0d2b51"/>
  <path id="Path_7313" data-name="Path 7313" d="M106.107,51.609a1.255,1.255,0,0,0,1.775-1.775l-1.345-1.345a1.255,1.255,0,1,0-1.775,1.775Z" transform="translate(-99.536 -44.094)" fill="#0d2b51"/>
  <path id="Path_7314" data-name="Path 7314" d="M251.137,51.609l1.345-1.345a1.255,1.255,0,0,0-1.775-1.775l-1.345,1.345a1.255,1.255,0,1,0,1.775,1.775Z" transform="translate(-232.033 -44.094)" fill="#0d2b51"/>
  <path id="Path_7315" data-name="Path 7315" d="M298.646,194.723a1.836,1.836,0,0,0-2.6-2.6l-4.372,4.372a1.836,1.836,0,0,0,2.6,2.6l4.371-4.371Z" transform="translate(-270.653 -175.554)" fill="#00d563"/>
  <path id="Path_7316" data-name="Path 7316" d="M346.509,263.291l3.279-3.279h0a1.836,1.836,0,1,0-2.6-2.6l-3.279,3.279a1.836,1.836,0,1,0,2.6,2.6Z" transform="translate(-318.516 -235.378)" fill="#00d563"/>
  <path id="Path_7317" data-name="Path 7317" d="M400.917,322.711a1.835,1.835,0,0,0-2.6,0l-2.186,2.186a1.836,1.836,0,0,0,2.6,2.6l2.186-2.186h0A1.835,1.835,0,0,0,400.917,322.711Z" transform="translate(-366.366 -295.209)" fill="#00d563"/>
  <path id="Path_7318" data-name="Path 7318" d="M73.061,74.913c0-.008,0-.017,0-.025a4.341,4.341,0,0,1-4.37-4.374,4.344,4.344,0,0,1-3.1-7.417L77.612,51.075a1.836,1.836,0,1,0-2.6-2.6L59.511,63.984l.205.205a8.993,8.993,0,0,1,0,12.7,1.255,1.255,0,0,1-1.775-1.775,6.48,6.48,0,0,0,0-9.153L56.847,64.87a1.253,1.253,0,0,1-.335-.6l-1.437-6.225A3.287,3.287,0,0,0,50.743,55.7a1.256,1.256,0,0,0-.823,1.18l.017,17.762-3.229,3.228a1.255,1.255,0,0,0,0,1.775L53.471,86.4a1.255,1.255,0,0,0,.888.368H66.744a3.359,3.359,0,0,0,2.39-.991L75.918,79a4.354,4.354,0,0,1-2.857-4.085Z" transform="translate(-46.341 -43.927)" fill="#00d563"/>
</svg>
