<svg xmlns="http://www.w3.org/2000/svg" width="42.046" height="52.045" viewBox="0 0 42.046 52.045">
  <g id="Group_12312" data-name="Group 12312" transform="translate(-299.645 -8894.695)">
    <path id="Path_8242" data-name="Path 8242" d="M52.815,35.038A25.113,25.113,0,0,0,47.5,31.587c-1.468-.732-2.556-1.151-2.576-1.159-2.506-.881-3.4-1.78-3.71-2.379l-.125-.361c-.036-.127-.067-.246-.1-.361l-.3-1.712-.008-.083a12.87,12.87,0,0,0,1.954-3.519l.062-.1a6.458,6.458,0,0,0,1.1-2.537c.524-1.47.328-2.11.166-2.366l-.066-.106.038-.117c.053-.159,1.284-3.927-.415-6.8l-.031-.076a5.964,5.964,0,0,0-3.754-3.854A10.338,10.338,0,0,0,34.826,5L34.67,5l-.155,0a10.342,10.342,0,0,0-4.91,1.062,5.971,5.971,0,0,0-3.754,3.854l-.029.076c-1.7,2.871-.468,6.639-.415,6.8l.038.117-.066.106c-.162.257-.359.9.166,2.366a6.443,6.443,0,0,0,1.1,2.537l.062.1a12.89,12.89,0,0,0,1.953,3.519l-.008.083-.3,1.712c-.03.115-.06.234-.1.361l-.125.361c-.309.6-1.2,1.5-3.709,2.379-.021.009-1.109.429-2.578,1.159a25.147,25.147,0,0,0-5.316,3.452c-.035.026-3.126,2.365-2.862,8.586.017.452.051.918.109,1.409,0,.5.158.895,1.115,1.193a60.953,60.953,0,0,0,13.691,2.71l-.079-.03a3.844,3.844,0,0,1-2.179-1.863,3.723,3.723,0,0,1-.077-3.072l.012-.029.012-.029c1.438-3.562,4.5-5.524,8.621-5.524,5,0,8.5,3.01,8.5,7.32a7.186,7.186,0,0,1-.622,3.02,59.142,59.142,0,0,0,11.688-2.5c.956-.3,1.116-.7,1.116-1.193.058-.491.091-.956.109-1.409.264-6.222-2.828-8.56-2.862-8.586Z" transform="translate(285.998 8889.695)" fill="#00d563"/>
    <path id="Path_8243" data-name="Path 8243" d="M48.086,88.055h-1.03c-1.262,0-1.662.4-1.662,1.64v.736c0,1.241.4,1.641,1.662,1.641h1.03c1.263,0,1.662-.4,1.662-1.641v-.736C49.748,88.453,49.347,88.055,48.086,88.055Z" transform="translate(272.61 8854.669)" fill="#0d2b51"/>
    <path id="Path_8244" data-name="Path 8244" d="M46.009,67.83c-3.26,0-5.006,1.494-5.89,3.681-.231.61-.063.9.547,1.136l2.019.757a2.081,2.081,0,0,0,.231.065l.072.012a1.128,1.128,0,0,0,.125.014l.027,0c.011,0,.02-.005.03-.006a.525.525,0,0,0,.145-.027c.014,0,.029-.008.043-.014a.54.54,0,0,0,.151-.105c.01-.01.019-.022.028-.032a1.139,1.139,0,0,0,.113-.153c.012-.019.025-.04.037-.062a2.754,2.754,0,0,0,.134-.263c.546-1.22,1.051-1.788,2.166-1.788.989,0,1.473.5,1.473,1.2,0,1.388-1.157,1.683-2.23,2.334a3.485,3.485,0,0,0-1.745,3.386c0,.652.21.84.841.84h1.892c.632,0,.841-.189.841-.84a1.437,1.437,0,0,1,.8-1.158c1.262-.862,3.7-1.535,3.7-4.606,0-2.564-2.038-4.373-5.551-4.373Z" transform="translate(274.876 8863.198)" fill="#0d2b51"/>
  </g>
</svg>
