<svg xmlns="http://www.w3.org/2000/svg" width="74" height="74" viewBox="0 0 74 74">
  <g id="Group_12351" data-name="Group 12351" transform="translate(-148 -4941.695)">
    <g id="Path_7371" data-name="Path 7371" transform="translate(148 4941.695)" fill="#f7f8f7">
      <path d="M 37 73 C 32.13959121704102 73 27.42510032653809 72.04830932617188 22.98748016357422 70.17134857177734 C 18.70075035095215 68.35820770263672 14.85066032409668 65.76233673095703 11.54415988922119 62.45584106445312 C 8.23766040802002 59.14934158325195 5.64178991317749 55.29925155639648 3.828649997711182 51.01251983642578 C 1.951689958572388 46.57490158081055 1 41.86040878295898 1 37 C 1 32.13959121704102 1.951689958572388 27.42510032653809 3.828649997711182 22.98748016357422 C 5.64178991317749 18.70075035095215 8.23766040802002 14.85066032409668 11.54415988922119 11.54415988922119 C 14.85066032409668 8.23766040802002 18.70075035095215 5.64178991317749 22.98748016357422 3.828649997711182 C 27.42510032653809 1.951689958572388 32.13959121704102 1 37 1 C 41.86040878295898 1 46.57490158081055 1.951689958572388 51.01251983642578 3.828649997711182 C 55.29925155639648 5.64178991317749 59.14934158325195 8.23766040802002 62.45584106445312 11.54415988922119 C 65.76233673095703 14.85066032409668 68.35820770263672 18.70075035095215 70.17134857177734 22.98748016357422 C 72.04830932617188 27.42510032653809 73 32.13959121704102 73 37 C 73 41.86040878295898 72.04830932617188 46.57490158081055 70.17134857177734 51.01251983642578 C 68.35820770263672 55.29925155639648 65.76233673095703 59.14934158325195 62.45584106445312 62.45584106445312 C 59.14934158325195 65.76233673095703 55.29925155639648 68.35820770263672 51.01251983642578 70.17134857177734 C 46.57490158081055 72.04830932617188 41.86040878295898 73 37 73 Z" stroke="none"/>
      <path d="M 37 2 C 32.27414321899414 2 27.69072341918945 2.925125122070312 23.37703323364258 4.749656677246094 C 19.20949935913086 6.512367248535156 15.46624374389648 9.036277770996094 12.25126647949219 12.25126647949219 C 9.036277770996094 15.46624374389648 6.512367248535156 19.20949935913086 4.749656677246094 23.37703323364258 C 2.925125122070312 27.69072341918945 2 32.27414321899414 2 37 C 2 41.72585678100586 2.925125122070312 46.30928039550781 4.749656677246094 50.62296676635742 C 6.512367248535156 54.79050064086914 9.036277770996094 58.53375625610352 12.25126647949219 61.74873352050781 C 15.46624374389648 64.96372222900391 19.20949935913086 67.48763275146484 23.37703323364258 69.25034332275391 C 27.69072341918945 71.07487487792969 32.27414321899414 72 37 72 C 41.72585678100586 72 46.30928039550781 71.07487487792969 50.62296676635742 69.25034332275391 C 54.79050064086914 67.48763275146484 58.53375625610352 64.96372222900391 61.74873352050781 61.74873352050781 C 64.96372222900391 58.53375625610352 67.48763275146484 54.79050064086914 69.25034332275391 50.62296676635742 C 71.07487487792969 46.30928039550781 72 41.72585678100586 72 37 C 72 32.27414321899414 71.07487487792969 27.69072341918945 69.25034332275391 23.37703323364258 C 67.48763275146484 19.20949935913086 64.96372222900391 15.46624374389648 61.74873352050781 12.25126647949219 C 58.53375625610352 9.036277770996094 54.79050064086914 6.512367248535156 50.62296676635742 4.749656677246094 C 46.30928039550781 2.925125122070312 41.72585678100586 2 37 2 M 37 0 C 57.43453216552734 0 74 16.56546783447266 74 37 C 74 57.43453216552734 57.43453216552734 74 37 74 C 16.56546783447266 74 0 57.43453216552734 0 37 C 0 16.56546783447266 16.56546783447266 0 37 0 Z" stroke="none" fill="#00d563"/>
    </g>
    <g id="html" transform="translate(168.595 4962.291)">
      <g id="Group_12348" data-name="Group 12348">
        <g id="Group_12347" data-name="Group 12347">
          <path id="Path_8402" data-name="Path 8402" d="M29.925,0H2.884A2.887,2.887,0,0,0,0,2.884V7.69H32.809V2.884A2.887,2.887,0,0,0,29.925,0ZM6.728,5.767H4.806a.961.961,0,0,1,0-1.922H6.728a.961.961,0,1,1,0,1.922Zm5.767,0H10.573a.961.961,0,1,1,0-1.922H12.5a.961.961,0,0,1,0,1.922Zm5.767,0H16.34a.961.961,0,0,1,0-1.922h1.922a.961.961,0,1,1,0,1.922Z" fill="#0d2b51"/>
        </g>
      </g>
      <g id="Group_12350" data-name="Group 12350" transform="translate(0 9.612)">
        <g id="Group_12349" data-name="Group 12349">
          <path id="Path_8403" data-name="Path 8403" d="M0,150v20.313A2.887,2.887,0,0,0,2.884,173.2H29.925a2.887,2.887,0,0,0,2.884-2.884V150Zm11.381,15.162a.961.961,0,0,1-1.359,0l-3.845-3.845a.961.961,0,0,1,0-1.359l3.845-3.845a.961.961,0,1,1,1.359,1.359l-3.165,3.165,3.165,3.165A.961.961,0,0,1,11.381,165.162Zm7.921-9.988-3.845,11.534a.961.961,0,0,1-1.823-.608l3.845-11.534a.961.961,0,0,1,1.823.608Zm7.458,6.143-3.845,3.845a.961.961,0,0,1-1.359-1.359l3.165-3.165-3.165-3.165a.961.961,0,1,1,1.359-1.359l3.845,3.845A.961.961,0,0,1,26.76,161.317Z" transform="translate(0 -150)" fill="#00d563"/>
        </g>
      </g>
    </g>
  </g>
</svg>
