<svg xmlns="http://www.w3.org/2000/svg" width="71" height="71" viewBox="0 0 71 71">
  <g id="Group_12323" data-name="Group 12323" transform="translate(-148 -2282.208)">
    <g id="Group_12216" data-name="Group 12216" transform="translate(-1621 185.208)">
      <g id="Ellipse_5" data-name="Ellipse 5" transform="translate(1769 2097)" fill="#fff" stroke="#00d563" stroke-width="2">
        <circle cx="35.5" cy="35.5" r="35.5" stroke="none"/>
        <circle cx="35.5" cy="35.5" r="34.5" fill="none"/>
      </g>
    </g>
    <g id="balance" transform="translate(166.203 2272.006)">
      <path id="Path_8365" data-name="Path 8365" d="M0,273.027H15.4L7.3,285.189h20L19.19,273.027h15.4V271H0Z" transform="translate(0 -223.784)" fill="#0d2b51"/>
      <path id="Path_8366" data-name="Path 8366" d="M280.108,45.511c4.837-4.112,8.108-6.224,8.108-9.689A4.647,4.647,0,0,0,283.655,31a5.332,5.332,0,0,0-3.547,1.348A5.333,5.333,0,0,0,276.561,31,4.647,4.647,0,0,0,272,35.822C272,39.228,275.112,41.263,280.108,45.511Z" transform="translate(-253.622 0)" fill="#00d563"/>
      <path id="Path_8367" data-name="Path 8367" d="M14.189,35.054H10.135V31H4.054v4.054H0v4.054H14.189ZM6.081,33.027H8.108v2.027H6.081Z" fill="#00d563"/>
      <path id="Path_8368" data-name="Path 8368" d="M0,181H14.189v4.054H0Z" transform="translate(0 -139.865)" fill="#00d563"/>
    </g>
  </g>
</svg>
