<svg xmlns="http://www.w3.org/2000/svg" width="1440" height="340.764" viewBox="0 0 1440 340.764">
  <g id="Group_12419" data-name="Group 12419" transform="translate(-15835.678 -2772.964)">
    <rect id="Rectangle_903" data-name="Rectangle 903" width="1440" height="340.763" transform="translate(15835.678 2772.964)" fill="#04af53"/>
    <path id="Intersection_3" data-name="Intersection 3" d="M0,1.515C0,1.011,0,.5,0,0H275.917a23,23,0,0,1,23,23V264.409a243.975,243.975,0,0,1-44.693,4.113C113.819,268.521,0,148.978,0,1.515Z" transform="translate(16976.76 2772.964)" fill="#05a951"/>
    <path id="Intersection_1" data-name="Intersection 1" d="M23,340.763a23,23,0,0,1-23-23V23A23,23,0,0,1,23,0H442.811a346.325,346.325,0,0,1,5.565,62c0,117.428-58.689,220.5-147,278.761Z" transform="translate(15835.678 2772.964)" fill="#05a951"/>
    <path id="Intersection_2" data-name="Intersection 2" d="M0,0H257.328c0,75.279-57.6,136.305-128.664,136.305S0,75.279,0,0Z" transform="translate(16425.713 2772.964)" fill="#05a951"/>
    <ellipse id="Ellipse_174" data-name="Ellipse 174" cx="56.534" cy="59.974" rx="56.534" ry="59.974" transform="translate(16664.846 2952.886)" fill="#05a951"/>
  </g>
</svg>
