<svg xmlns="http://www.w3.org/2000/svg" width="72.167" height="72.167" viewBox="0 0 72.167 72.167">
  <g id="Group_12401" data-name="Group 12401" transform="translate(-148 -10089.923)">
    <g id="Path_8452" data-name="Path 8452" transform="translate(148 10089.923)" fill="none">
      <path d="M36.083,0A36.083,36.083,0,1,1,0,36.083,36.083,36.083,0,0,1,36.083,0Z" stroke="none"/>
      <path d="M 36.08349609375 1.999992370605469 C 31.48137283325195 1.999992370605469 27.01797485351562 2.900886535644531 22.8172721862793 4.677627563476562 C 18.75887298583984 6.394187927246094 15.11363983154297 8.852008819580078 11.98281860351562 11.98281860351562 C 8.852008819580078 15.11363983154297 6.394187927246094 18.75887298583984 4.677627563476562 22.8172721862793 C 2.900886535644531 27.01797485351562 1.999992370605469 31.48137283325195 1.999992370605469 36.08349609375 C 1.999992370605469 40.68561553955078 2.900886535644531 45.14901733398438 4.677627563476562 49.34971618652344 C 6.394187927246094 53.40811920166016 8.852008819580078 57.05335235595703 11.98281860351562 60.18417358398438 C 15.11363983154297 63.31498718261719 18.75887298583984 65.77280426025391 22.8172721862793 67.48936462402344 C 27.01797485351562 69.26610565185547 31.48137283325195 70.16699981689453 36.08349609375 70.16699981689453 C 40.68561553955078 70.16699981689453 45.14901733398438 69.26610565185547 49.34971618652344 67.48936462402344 C 53.40811920166016 65.77280426025391 57.05335235595703 63.31498718261719 60.18417358398438 60.18417358398438 C 63.31498718261719 57.05335235595703 65.77280426025391 53.40811920166016 67.48936462402344 49.34971618652344 C 69.26610565185547 45.14901733398438 70.16699981689453 40.68561553955078 70.16699981689453 36.08349609375 C 70.16699981689453 31.48137283325195 69.26610565185547 27.01797485351562 67.48936462402344 22.8172721862793 C 65.77280426025391 18.75887298583984 63.31498718261719 15.11363983154297 60.18417358398438 11.98281860351562 C 57.05335235595703 8.852008819580078 53.40811920166016 6.394187927246094 49.34971618652344 4.677627563476562 C 45.14901733398438 2.900886535644531 40.68561553955078 1.999992370605469 36.08349609375 1.999992370605469 M 36.08349609375 -7.62939453125e-06 C 56.01186370849609 -7.62939453125e-06 72.16699981689453 16.15512847900391 72.16699981689453 36.08349609375 C 72.16699981689453 56.01186370849609 56.01186370849609 72.16699981689453 36.08349609375 72.16699981689453 C 16.15512847900391 72.16699981689453 -7.62939453125e-06 56.01186370849609 -7.62939453125e-06 36.08349609375 C -7.62939453125e-06 16.15512847900391 16.15512847900391 -7.62939453125e-06 36.08349609375 -7.62939453125e-06 Z" stroke="none" fill="#0fa554"/>
    </g>
    <g id="like" transform="translate(165.85 10107.953)">
      <g id="Group_12397" data-name="Group 12397" transform="translate(0.194 15.864)">
        <g id="Group_12396" data-name="Group 12396" transform="translate(0)">
          <path id="Path_8450" data-name="Path 8450" d="M1.262,224.948a1.068,1.068,0,0,0-1.068,1.068V241.7a1.068,1.068,0,0,0,1.068,1.068H7.7V224.948Z" transform="translate(-0.194 -224.948)" fill="#0d2b51"/>
        </g>
      </g>
      <g id="Group_12399" data-name="Group 12399" transform="translate(9.834 0)">
        <g id="Group_12398" data-name="Group 12398" transform="translate(0 0)">
          <path id="Path_8451" data-name="Path 8451" d="M163.326,21.762a3.725,3.725,0,0,0-1.815-3.2,3.722,3.722,0,0,0-3.063-5.838h-7.86c.241-1.092.57-2.73.8-4.445.6-4.463.189-6.938-1.284-7.789a3.219,3.219,0,0,0-2.788-.3,3.666,3.666,0,0,0-2.12,2.457L143.13,8.057c-1.047,2.587-4.255,5.3-6.244,6.8v19.3a34.528,34.528,0,0,0,11.458,1.946h8.565a3.722,3.722,0,0,0,3.164-5.684,3.721,3.721,0,0,0,1.438-5.465A3.725,3.725,0,0,0,163.326,21.762Z" transform="translate(-136.886 0)" fill="#00d563"/>
        </g>
      </g>
    </g>
  </g>
</svg>
