<svg xmlns="http://www.w3.org/2000/svg" width="74" height="74" viewBox="0 0 74 74">
  <g id="Group_12353" data-name="Group 12353" transform="translate(-942 -4941.695)">
    <g id="Ellipse_8" data-name="Ellipse 8" transform="translate(942 4941.695)" fill="#f7f8f7" stroke="#00d563" stroke-width="2">
      <circle cx="37" cy="37" r="37" stroke="none"/>
      <circle cx="37" cy="37" r="36" fill="none"/>
    </g>
    <g id="ecommerce" transform="translate(959.162 4960.976)">
      <path id="Path_8394" data-name="Path 8394" d="M39.676,19.541V3.987A3.491,3.491,0,0,0,36.189.5H3.487A3.491,3.491,0,0,0,0,3.987V19.541Zm-21.617-7.1H6.936a1.162,1.162,0,0,1,0-2.325H18.058a1.162,1.162,0,0,1,0,2.325Zm0-3.708H6.936a1.162,1.162,0,0,1,0-2.325H18.058a1.162,1.162,0,0,1,0,2.325Zm0,7.416H6.936a1.162,1.162,0,1,1,0-2.325H18.058a1.162,1.162,0,1,1,0,2.325Zm7.287,1.225a1.162,1.162,0,1,1,1.162-1.162A1.162,1.162,0,0,1,25.346,17.377Zm3.217,0a1.162,1.162,0,1,1,1.162-1.162A1.162,1.162,0,0,1,28.562,17.377Zm5.189-8.134-2.628,4.623a1.162,1.162,0,0,1-1.01.588H24.737a1.163,1.163,0,0,1-1.162-1.164l.005-4.623V7.544h-.6a1.162,1.162,0,1,1,0-2.325h1.767A1.162,1.162,0,0,1,25.9,6.382V7.507H32.74a1.163,1.163,0,0,1,1.011,1.737Zm0,0" fill="#00d563"/>
      <path id="Path_8395" data-name="Path 8395" d="M0,276.219v3.121a3.491,3.491,0,0,0,3.487,3.487H14.935v4.141H11.723a1.162,1.162,0,0,0,0,2.325H27.953a1.162,1.162,0,0,0,0-2.325H24.741v-4.141H36.189a3.491,3.491,0,0,0,3.487-3.487v-3.121ZM19.336,277.3h1a1.162,1.162,0,0,1,0,2.325h-1a1.162,1.162,0,0,1,0-2.325Zm0,0" transform="translate(0 -254.353)" fill="#0d2b51"/>
    </g>
  </g>
</svg>
