<svg xmlns="http://www.w3.org/2000/svg" width="72.167" height="72.167" viewBox="0 0 72.167 72.167">
  <g id="Group_12403" data-name="Group 12403" transform="translate(-743.85 -10358.5)">
    <g id="Ellipse_257" data-name="Ellipse 257" transform="translate(743.85 10358.5)" fill="none" stroke="#0fa554" stroke-width="2">
      <circle cx="36.083" cy="36.083" r="36.083" stroke="none"/>
      <circle cx="36.083" cy="36.083" r="35.083" fill="none"/>
    </g>
    <g id="contract" transform="translate(764.129 10378.779)">
      <path id="Path_8460" data-name="Path 8460" d="M15.559,29.474a2.779,2.779,0,0,1-3.708-1.63H8.334a.926.926,0,1,1,0-1.852h3.5a19.648,19.648,0,0,1,4.092-7.967l6.3-7.39V1.852A1.854,1.854,0,0,0,20.373,0H1.852A1.854,1.854,0,0,0,0,1.852v27.9a1.854,1.854,0,0,0,1.852,1.852h18.52a1.854,1.854,0,0,0,1.852-1.852V24.872a19.738,19.738,0,0,1-6.665,4.6ZM13.607,3.766h4.075a.926.926,0,0,1,0,1.852H13.607a.926.926,0,1,1,0-1.852Zm-8.89,3.7h12.9a.926.926,0,1,1,0,1.852H4.717a.926.926,0,1,1,0-1.852Zm0,3.7H17.656a.926.926,0,1,1,0,1.852H4.717a.926.926,0,0,1,0-1.852Zm0,3.7H14.842a.926.926,0,0,1,0,1.852H4.717a.926.926,0,1,1,0-1.852Zm-.926,4.63a.926.926,0,0,1,.926-.926h7.408a.926.926,0,0,1,0,1.852H4.717A.926.926,0,0,1,3.791,19.509Z" transform="translate(0)" fill="#00d563"/>
      <path id="Path_8461" data-name="Path 8461" d="M223.182,187.962a17.777,17.777,0,0,0-3.77,7.483.927.927,0,0,0,1.265,1.061,17.8,17.8,0,0,0,6.666-4.861l6.984-8.2-4.226-3.607Z" transform="translate(-205.844 -168.736)" fill="#0d2b51"/>
      <path id="Path_8462" data-name="Path 8462" d="M417.544,117.99a2.785,2.785,0,0,0-3.9.327l-1.256,1.475,4.226,3.607,1.259-1.478A2.776,2.776,0,0,0,417.544,117.99Z" transform="translate(-386.928 -110.098)" fill="#0d2b51"/>
      <path id="Path_8463" data-name="Path 8463" d="M417.564,216.416l-1.165-.994-1.2,1.41,1.163.993a.31.31,0,0,1,.036.433l-4.021,4.784a.926.926,0,1,0,1.418,1.192l4.021-4.784A2.167,2.167,0,0,0,417.564,216.416Z" transform="translate(-386.714 -202.123)" fill="#0d2b51"/>
    </g>
  </g>
</svg>
