<svg xmlns="http://www.w3.org/2000/svg" width="128.764" height="128.764" viewBox="0 0 128.764 128.764">
  <g id="Group_12414" data-name="Group 12414" transform="translate(-264 -11226.105)">
    <g id="Ellipse_257" data-name="Ellipse 257" transform="translate(264 11226.105)" fill="#fff" stroke="#0fa554" stroke-width="2">
      <circle cx="64.382" cy="64.382" r="64.382" stroke="none"/>
      <circle cx="64.382" cy="64.382" r="63.382" fill="none"/>
    </g>
    <g id="like_1_" data-name="like (1)" transform="translate(298.042 11256.253)">
      <g id="Group_12411" data-name="Group 12411" transform="translate(0.194 26.509)">
        <g id="Group_12410" data-name="Group 12410" transform="translate(0)">
          <path id="Path_8472" data-name="Path 8472" d="M1.979,224.948a1.785,1.785,0,0,0-1.785,1.785v26.216a1.785,1.785,0,0,0,1.785,1.785H12.733V224.948Z" transform="translate(-0.194 -224.948)" fill="#0d2b51"/>
        </g>
      </g>
      <g id="Group_12413" data-name="Group 12413" transform="translate(16.303 0)">
        <g id="Group_12412" data-name="Group 12412">
          <path id="Path_8473" data-name="Path 8473" d="M181.069,36.366a6.225,6.225,0,0,0-3.033-5.341,6.219,6.219,0,0,0-5.119-9.756H159.783c.4-1.824.953-4.562,1.337-7.427,1-7.457.316-11.593-2.146-13.016a5.38,5.38,0,0,0-4.659-.507,6.125,6.125,0,0,0-3.543,4.106l-3.452,9.039c-1.75,4.322-7.11,8.86-10.434,11.369V57.085a57.7,57.7,0,0,0,19.147,3.253h14.312a6.22,6.22,0,0,0,5.288-9.5,6.218,6.218,0,0,0,2.4-9.132A6.225,6.225,0,0,0,181.069,36.366Z" transform="translate(-136.886 0)" fill="#00d563"/>
        </g>
      </g>
    </g>
  </g>
</svg>
