<svg xmlns="http://www.w3.org/2000/svg" width="65" height="65" viewBox="0 0 65 65">
  <g id="Group_12370" data-name="Group 12370" transform="translate(-775 -5804.767)">
    <g id="Ellipse_3" data-name="Ellipse 3" transform="translate(775 5804.767)" fill="#fff" stroke="#0d2b51" stroke-width="2">
      <circle cx="32.5" cy="32.5" r="32.5" stroke="none"/>
      <circle cx="32.5" cy="32.5" r="31.5" fill="none"/>
    </g>
    <g id="data-analytics" transform="translate(792.029 5822.654)">
      <path id="Path_8436" data-name="Path 8436" d="M.86,234.668H4.3a.859.859,0,0,1,.86.859v8.6a.86.86,0,0,1-.86.86H.86a.86.86,0,0,1-.86-.86v-8.6a.859.859,0,0,1,.86-.859Zm0,0" transform="translate(0 -215.758)" fill="#0d2b51"/>
      <path id="Path_8437" data-name="Path 8437" d="M107.527,149.332h3.438a.86.86,0,0,1,.86.86v15.472a.86.86,0,0,1-.86.86h-3.438a.859.859,0,0,1-.859-.86V150.192A.859.859,0,0,1,107.527,149.332Zm0,0" transform="translate(-98.073 -137.299)" fill="#0d2b51"/>
      <path id="Path_8438" data-name="Path 8438" d="M214.192,192h3.438a.859.859,0,0,1,.859.86v12.033a.859.859,0,0,1-.859.86h-3.438a.86.86,0,0,1-.86-.86V192.86A.86.86,0,0,1,214.192,192Zm0,0" transform="translate(-196.142 -176.528)" fill="#0d2b51"/>
      <path id="Path_8439" data-name="Path 8439" d="M320.86,128H324.3a.86.86,0,0,1,.86.86V146.05a.86.86,0,0,1-.86.86H320.86a.86.86,0,0,1-.86-.86V128.86A.86.86,0,0,1,320.86,128Zm0,0" transform="translate(-294.214 -117.686)" fill="#0d2b51"/>
      <path id="Path_8440" data-name="Path 8440" d="M28.364,0a2.582,2.582,0,0,0-2.579,2.579,2.549,2.549,0,0,0,.147.823L21.63,5.96a2.557,2.557,0,0,0-4.116.551l-3.8-1.88a2.582,2.582,0,0,0,.034-.334,2.579,2.579,0,1,0-4.96.983L3.869,8.955A2.549,2.549,0,0,0,2.578,8.6a2.606,2.606,0,1,0,2.406,1.672L9.956,6.557a2.524,2.524,0,0,0,2.986-.392L17.258,8.3a2.576,2.576,0,0,0,5.09-.567c0-.065-.014-.127-.019-.191l4.68-2.782a2.553,2.553,0,0,0,1.356.4,2.579,2.579,0,1,0,0-5.157Zm0,0" fill="#00d563"/>
    </g>
  </g>
</svg>
