<svg xmlns="http://www.w3.org/2000/svg" width="36.08" height="36.106" viewBox="0 0 36.08 36.106">
  <g id="like" transform="translate(-0.194)">
    <g id="Group_12397" data-name="Group 12397" transform="translate(0.194 15.864)">
      <g id="Group_12396" data-name="Group 12396" transform="translate(0)">
        <path id="Path_8450" data-name="Path 8450" d="M1.262,224.948a1.068,1.068,0,0,0-1.068,1.068V241.7a1.068,1.068,0,0,0,1.068,1.068H7.7V224.948Z" transform="translate(-0.194 -224.948)" fill="#0d2b51"/>
      </g>
    </g>
    <g id="Group_12399" data-name="Group 12399" transform="translate(9.834 0)">
      <g id="Group_12398" data-name="Group 12398" transform="translate(0 0)">
        <path id="Path_8451" data-name="Path 8451" d="M163.326,21.762a3.725,3.725,0,0,0-1.815-3.2,3.722,3.722,0,0,0-3.063-5.838h-7.86c.241-1.092.57-2.73.8-4.445.6-4.463.189-6.938-1.284-7.789a3.219,3.219,0,0,0-2.788-.3,3.666,3.666,0,0,0-2.12,2.457L143.13,8.057c-1.047,2.587-4.255,5.3-6.244,6.8v19.3a34.528,34.528,0,0,0,11.458,1.946h8.565a3.722,3.722,0,0,0,3.164-5.684,3.721,3.721,0,0,0,1.438-5.465A3.725,3.725,0,0,0,163.326,21.762Z" transform="translate(-136.886 0)" fill="#00d563"/>
      </g>
    </g>
  </g>
</svg>
