<svg xmlns="http://www.w3.org/2000/svg" width="59.756" height="59.76" viewBox="0 0 59.756 59.76">
  <g id="outsourcing_3_" data-name="outsourcing (3)" transform="translate(-1.999 -1.997)">
    <path id="Path_8348" data-name="Path 8348" d="M10.171,10.267l-.043,5.869c.1.083.127.055.143.038l1.439-1.441a1.1,1.1,0,0,1,1.509,0l3.068,3.061a20.39,20.39,0,0,1,1.508-1.508L14.73,13.222a1.067,1.067,0,0,1,0-1.509l1.442-1.441-.038-.142-5.859.043a.118.118,0,0,0-.1.093Z" transform="translate(0.545 0.546)" fill="#0d2b51"/>
    <path id="Path_8349" data-name="Path 8349" d="M50.215,10.171l-5.869-.043-.038.142,1.442,1.441a1.067,1.067,0,0,1,0,1.509l-3.062,3.068a20.39,20.39,0,0,1,1.508,1.508l3.065-3.064a1.067,1.067,0,0,1,1.509,0l1.439,1.441a.084.084,0,0,0,.107.021V10.275a.118.118,0,0,0-.1-.1Z" transform="translate(2.729 0.545)" fill="#0d2b51"/>
    <path id="Path_8350" data-name="Path 8350" d="M13.217,45.752a1.067,1.067,0,0,1-1.509,0L10.269,44.31a.078.078,0,0,0-.107-.021v5.919a.118.118,0,0,0,.1.107l5.869.043c.084-.1.055-.126.037-.143l-1.441-1.439a1.067,1.067,0,0,1,0-1.509l3.069-3.071a20.186,20.186,0,0,1-1.508-1.508Z" transform="translate(0.547 2.729)" fill="#0d2b51"/>
    <path id="Path_8351" data-name="Path 8351" d="M45.752,47.263a1.067,1.067,0,0,1,0,1.509L44.31,50.211a.084.084,0,0,0-.021.107l5.919-.005a.118.118,0,0,0,.107-.1l.043-5.869c-.1-.083-.125-.055-.143-.037l-1.439,1.441a1.1,1.1,0,0,1-1.509,0l-3.071-3.064a20.186,20.186,0,0,1-1.508,1.508Z" transform="translate(2.729 2.729)" fill="#0d2b51"/>
    <path id="Path_8352" data-name="Path 8352" d="M30.268,49c-.361,0-.712-.035-1.067-.054v4.323a1.067,1.067,0,0,1-1.067,1.067H26.1A.085.085,0,0,0,26,54.4L30.2,58.584a.128.128,0,0,0,.149,0l4.169-4.116c0-.126-.047-.126-.074-.126H32.4a1.067,1.067,0,0,1-1.067-1.067V48.949C30.98,48.968,30.629,49,30.268,49Z" transform="translate(1.61 3.149)" fill="#0d2b51"/>
    <path id="Path_8353" data-name="Path 8353" d="M2.025,30.344l4.116,4.17c.128,0,.128-.047.128-.074V32.4a1.067,1.067,0,0,1,1.067-1.067H11.66c-.019-.355-.054-.706-.054-1.067s.035-.712.054-1.067H7.335a1.067,1.067,0,0,1-1.067-1.067V26.1a.085.085,0,0,0-.06-.1L2.021,30.2a.127.127,0,0,0,0,.147Z" transform="translate(0 1.61)" fill="#0d2b51"/>
    <rect id="Rectangle_1510" data-name="Rectangle 1510" width="23.475" height="6.402" rx="2" transform="translate(20.14 23.341)" fill="#00d563"/>
    <path id="Path_8354" data-name="Path 8354" d="M34.537,19.067A1.067,1.067,0,0,0,33.469,18h-6.4A1.067,1.067,0,0,0,26,19.067v1.067h8.537Z" transform="translate(1.61 1.073)" fill="#00d563"/>
    <path id="Path_8355" data-name="Path 8355" d="M29.2,7.336V11.66c.355-.019.706-.054,1.067-.054s.712.035,1.067.054V7.336A1.067,1.067,0,0,1,32.4,6.268h2.038a.085.085,0,0,0,.1-.059l-4.2-4.189a.128.128,0,0,0-.149,0L26.021,6.139c0,.127.047.127.074.127h2.038A1.067,1.067,0,0,1,29.2,7.336Z" transform="translate(1.611)" fill="#0d2b51"/>
    <path id="Path_8356" data-name="Path 8356" d="M29.067,32.134H31.2a1.067,1.067,0,0,0,1.067-1.067V30H28v1.067A1.067,1.067,0,0,0,29.067,32.134Z" transform="translate(1.744 1.878)" fill="#00d563"/>
    <path id="Path_8357" data-name="Path 8357" d="M21.134,38.574H40.341a2.134,2.134,0,0,0,2.134-2.134v-7a4.225,4.225,0,0,1-2.134.593H35.006V31.1a3.2,3.2,0,0,1-3.2,3.2H29.671a3.2,3.2,0,0,1-3.2-3.2V30.037H21.134A4.225,4.225,0,0,1,19,29.444v7A2.134,2.134,0,0,0,21.134,38.574Z" transform="translate(1.14 1.841)" fill="#00d563"/>
    <path id="Path_8358" data-name="Path 8358" d="M53.272,31.334A1.067,1.067,0,0,1,54.339,32.4v2.038a.085.085,0,0,0,.058.093l4.187-4.194a.127.127,0,0,0,0-.147l-4.117-4.169c-.126,0-.126.046-.126.073v2.038A1.067,1.067,0,0,1,53.274,29.2H48.949c.019.355.054.706.054,1.067s-.035.712-.054,1.067Z" transform="translate(3.149 1.611)" fill="#0d2b51"/>
    <path id="Path_8359" data-name="Path 8359" d="M13,31.14A18.14,18.14,0,1,0,31.14,13,18.14,18.14,0,0,0,13,31.14Zm8.537-10.671h3.2V19.4a3.2,3.2,0,0,1,3.2-3.2h6.4a3.2,3.2,0,0,1,3.2,3.2v1.067h3.2a4.268,4.268,0,0,1,4.268,4.268v12.8a4.268,4.268,0,0,1-4.268,4.268H21.537a4.268,4.268,0,0,1-4.268-4.268v-12.8A4.268,4.268,0,0,1,21.537,20.469Z" transform="translate(0.738 0.738)" fill="#0d2b51"/>
  </g>
</svg>
