<svg id="preview" xmlns="http://www.w3.org/2000/svg" width="43.833" height="43.833" viewBox="0 0 43.833 43.833">
  <path id="Path_8248" data-name="Path 8248" d="M290,8.784v7.809h7.809Z" transform="translate(-265.173 -8.032)" fill="#00d563"/>
  <path id="Path_8249" data-name="Path 8249" d="M31.12,15.41a10.267,10.267,0,0,1,2.268.253V11.129H23.543a1.284,1.284,0,0,1-1.284-1.284V0H4.709A4.714,4.714,0,0,0,0,4.709V39.124a4.714,4.714,0,0,0,4.709,4.709H28.68a4.714,4.714,0,0,0,4.709-4.709V35.7A10.274,10.274,0,1,1,31.12,15.41ZM17.55,31.676H6.421a1.284,1.284,0,1,1,0-2.568H17.55a1.284,1.284,0,1,1,0,2.568Zm0-5.137H6.421a1.284,1.284,0,1,1,0-2.568H17.55a1.284,1.284,0,1,1,0,2.568Zm0-5.137H6.421a1.284,1.284,0,1,1,0-2.568H17.55a1.284,1.284,0,1,1,0,2.568Zm3.424-5.137H6.421a1.284,1.284,0,0,1,0-2.568H20.975a1.284,1.284,0,0,1,0,2.568Z" fill="#00d563"/>
  <path id="Path_8250" data-name="Path 8250" d="M293.549,228.225l-6.058-6.058a7.712,7.712,0,1,0-1.816,1.816l6.058,6.058a1.284,1.284,0,0,0,1.816-1.816Z" transform="translate(-250.092 -192.022)" fill="#0d2b51"/>
</svg>
