<svg xmlns="http://www.w3.org/2000/svg" width="66.213" height="66.212" viewBox="0 0 66.213 66.212">
  <g id="process_2_" data-name="process (2)" transform="translate(-0.001 -0.001)">
    <path id="Path_8441" data-name="Path 8441" d="M182.94,184.88h15.519a1.94,1.94,0,1,0,0-3.88H182.94a1.94,1.94,0,0,0,0,3.88Zm0,0" transform="translate(-157.592 -157.592)" fill="#0d2b51"/>
    <path id="Path_8442" data-name="Path 8442" d="M182.94,244.88h15.519a1.94,1.94,0,0,0,0-3.88H182.94a1.94,1.94,0,0,0,0,3.88Zm0,0" transform="translate(-157.592 -209.833)" fill="#0d2b51"/>
    <path id="Path_8443" data-name="Path 8443" d="M182.94,304.88h15.519a1.94,1.94,0,1,0,0-3.88H182.94a1.94,1.94,0,1,0,0,3.88Zm0,0" transform="translate(-157.592 -262.074)" fill="#0d2b51"/>
    <path id="Path_8444" data-name="Path 8444" d="M332.047,63.748a21.362,21.362,0,0,1,10.677,13.045h-3.053a1.939,1.939,0,0,0-1.614,3.016L344.846,91.5a2.014,2.014,0,0,0,3.228,0c.74-1.273,7.173-12.13,6.919-11.693a1.94,1.94,0,0,0-1.614-3.016h-2.654a29.042,29.042,0,0,0-15.137-19.934,5.913,5.913,0,0,1,.2,1.505,5.571,5.571,0,0,1-3.742,5.384Zm0,0" transform="translate(-289.105 -49.505)" fill="#00d563"/>
    <path id="Path_8445" data-name="Path 8445" d="M65.786.326A1.94,1.94,0,0,0,62.77,1.94V4.594a29.127,29.127,0,0,0-22.016,20.1,5.737,5.737,0,0,1,7.992.752A21.375,21.375,0,0,1,62.77,12.6v3.053a1.94,1.94,0,0,0,3.016,1.615l11.693-6.79a2.013,2.013,0,0,0,0-3.228C76.206,6.506,65.349.072,65.786.326Zm0,0" transform="translate(-35.482 0)" fill="#00d563"/>
    <path id="Path_8446" data-name="Path 8446" d="M.23,225.494a1.94,1.94,0,0,0,1.711,1.025H5.7a29.1,29.1,0,0,0,14.023,16.034,5.891,5.891,0,0,1-.193-1.486,5.557,5.557,0,0,1,3.714-5.369,21.425,21.425,0,0,1-9.12-9.179h1.524a1.939,1.939,0,0,0,1.614-3.016L10.474,211.81a2.014,2.014,0,0,0-3.228,0c-.511.88-7.337,12.413-6.919,11.693a1.943,1.943,0,0,0-.1,1.991Zm0,0" transform="translate(0 -183.713)" fill="#00d563"/>
    <path id="Path_8447" data-name="Path 8447" d="M196.519,340.579a1.939,1.939,0,0,0-3.016-1.614l-11.693,6.789a2.014,2.014,0,0,0,0,3.228c1.273.739,12.13,7.173,11.693,6.919a1.94,1.94,0,0,0,3.016-1.614v-2.654A29.04,29.04,0,0,0,216.452,336.5a5.875,5.875,0,0,1-1.5.2c-3.3,0-4.543-2.1-5.45-3.609a21.363,21.363,0,0,1-12.979,10.542Zm0,0" transform="translate(-157.592 -290.013)" fill="#00d563"/>
  </g>
</svg>
