<svg xmlns="http://www.w3.org/2000/svg" width="36.5" height="43.43" viewBox="0 0 36.5 43.43">
  <g id="save-money" transform="translate(-0.359)">
    <path id="Path_7343" data-name="Path 7343" d="M104.008,129.792a9.3,9.3,0,1,0,9.3-9.3A9.3,9.3,0,0,0,104.008,129.792Zm9.3.588a3.056,3.056,0,0,1-.776-6.016v-.786a.644.644,0,0,1,1.289,0v.747a3.025,3.025,0,0,1,2.52,3,.637.637,0,1,1-1.274,0,1.762,1.762,0,1,0-1.76,1.764,3.051,3.051,0,0,1,.514,6.056v.768a.644.644,0,1,1-1.289,0v-.808a3.085,3.085,0,0,1-2.3-2.963.652.652,0,0,1,1.3,0,1.768,1.768,0,0,0,1.575,1.753.671.671,0,0,1,.1-.008.65.65,0,0,1,.144.017,1.763,1.763,0,0,0-.051-3.526Zm0,0" transform="translate(-94.106 -109.399)" fill="#0d2b51"/>
    <path id="Path_7344" data-name="Path 7344" d="M92.134,353.548l-.015.008-5.983,2.826a4.624,4.624,0,0,1,.083,1.006.644.644,0,0,1-.644.627h-.018l-8.756-.241a.645.645,0,1,1,.035-1.289l8.048.222a3.323,3.323,0,0,0-3.178-2.761l-5.326-.146a7.013,7.013,0,0,1-3.018-.78l-.542-.281a8.188,8.188,0,0,0-8.358.471l-.213,7.748.915-.49a3.981,3.981,0,0,1,2.968-.325l9.039,2.537a8.443,8.443,0,0,0,5.173-.578L94.868,354a2.342,2.342,0,0,0-2.734-.453Zm0,0" transform="translate(-58.008 -319.422)" fill="#00d563"/>
    <path id="Path_7345" data-name="Path 7345" d="M.359,352.079l.318-11.528,4.552.125L4.912,352.2Zm0,0" transform="translate(0 -309.198)" fill="#00d563"/>
    <path id="Path_7346" data-name="Path 7346" d="M198.875,7.642v-7a.644.644,0,0,0-1.289,0v7a.644.644,0,0,0,1.289,0Zm0,0" transform="translate(-179.069)" fill="#0d2b51"/>
    <path id="Path_7347" data-name="Path 7347" d="M258.875,43.959V40.644a.644.644,0,1,0-1.289,0v3.314a.644.644,0,0,0,1.289,0Zm0,0" transform="translate(-233.545 -36.317)" fill="#0d2b51"/>
    <path id="Path_7348" data-name="Path 7348" d="M138.875,43.959V40.644a.644.644,0,1,0-1.289,0v3.314a.644.644,0,0,0,1.289,0Zm0,0" transform="translate(-124.593 -36.317)" fill="#0d2b51"/>
  </g>
</svg>
