<svg xmlns="http://www.w3.org/2000/svg" width="36.112" height="36.112" viewBox="0 0 36.112 36.112">
  <g id="to-do-list_1_" data-name="to-do-list (1)" transform="translate(0 0)">
    <path id="Path_8372" data-name="Path 8372" d="M60.05,65.29a1.058,1.058,0,1,0,2.116,0V60H60.05Z" transform="translate(-55.815 -55.768)" fill="#0d2b51"/>
    <path id="Path_8373" data-name="Path 8373" d="M3.068,0A3.213,3.213,0,0,0,0,3.233V26.449a1.058,1.058,0,0,0,1.058,1.058H2.116V3.174A1.058,1.058,0,0,1,3.174,2.116H6.169A3.18,3.18,0,0,0,3.068,0Z" transform="translate(0 0)" fill="#0d2b51"/>
    <path id="Path_8374" data-name="Path 8374" d="M61.054,177.585A3.159,3.159,0,0,1,60,177.4v22.542A1.058,1.058,0,0,0,61.058,201H82.217a1.058,1.058,0,0,0,1.058-1.058V177.585H61.054ZM72.7,182.24h5.29a1.058,1.058,0,0,1,0,2.116H72.7a1.058,1.058,0,0,1,0-2.116Zm0,5.784h5.29a1.058,1.058,0,0,1,0,2.116H72.7a1.058,1.058,0,0,1,0-2.116Zm0,5.784h5.29a1.058,1.058,0,0,1,0,2.116H72.7a1.058,1.058,0,1,1,0-2.116Zm-8.154-11.285a1.058,1.058,0,0,1,1.5,0l.351.351,1.395-1.395a1.058,1.058,0,0,1,1.5,1.5l-2.143,2.143a1.058,1.058,0,0,1-1.5,0l-1.1-1.1A1.058,1.058,0,0,1,64.542,182.523Zm0,5.771a1.058,1.058,0,0,1,1.5,0l.351.351,1.345-1.345a1.058,1.058,0,1,1,1.5,1.5l-2.093,2.093a1.058,1.058,0,0,1-1.5,0l-1.1-1.1A1.058,1.058,0,0,1,64.542,188.294Zm0,5.8a1.058,1.058,0,0,1,1.5,0l.351.351,1.345-1.345a1.058,1.058,0,1,1,1.5,1.5l-2.093,2.093a1.058,1.058,0,0,1-1.5,0l-1.1-1.1A1.058,1.058,0,0,1,64.542,194.09Z" transform="translate(-55.768 -164.89)" fill="#0d2b51"/>
    <path id="Path_8375" data-name="Path 8375" d="M124.04,0H105a5.264,5.264,0,0,1,1.062,3.176c-.058,6.359.136,6.508-.182,7.4h20.28a1.059,1.059,0,0,0,1.058-1.058V3.174A3.177,3.177,0,0,0,124.04,0Z" transform="translate(-97.591 0)" fill="#0d2b51"/>
    <path id="Path_8376" data-name="Path 8376" d="M428.318,157.46l-2.112-5.29a1.058,1.058,0,0,0-1.965,0c-2.22,5.62-2.192,5.321-2.192,5.683l0,12.676h6.342V157.852A1.058,1.058,0,0,0,428.318,157.46Z" transform="translate(-392.282 -140.819)" fill="#00d563"/>
    <path id="Path_8377" data-name="Path 8377" d="M422.091,453.041a2.471,2.471,0,0,0,2.469,2.468h1.4a2.471,2.471,0,0,0,2.469-2.469v-1.818h-6.341Z" transform="translate(-392.32 -419.397)" fill="#00d563"/>
  </g>
</svg>
