<svg xmlns="http://www.w3.org/2000/svg" width="48.324" height="66.782" viewBox="0 0 48.324 66.782">
  <g id="Touch_Screen" data-name="Touch Screen" transform="translate(-6.999 -0.011)">
    <path id="Path_8469" data-name="Path 8469" d="M34.626,18A11.37,11.37,0,1,0,12,16.361c0,1.35.071,2.842,1.521,2.842a1.421,1.421,0,0,0,1.421-1.634,8.527,8.527,0,1,1,16.884,0,1.421,1.421,0,0,0,2.8.426Z" transform="translate(2.107 2.111)" fill="#0d2b51"/>
    <path id="Path_8470" data-name="Path 8470" d="M25.476,2.838A15.634,15.634,0,0,1,40.613,22.38a1.424,1.424,0,1,0,2.757.711,18.476,18.476,0,1,0-35.787,0,1.424,1.424,0,1,0,2.757-.711A15.634,15.634,0,0,1,25.476,2.838Z" transform="translate(0 0)" fill="#0d2b51"/>
    <path id="Path_8471" data-name="Path 8471" d="M49.6,29.478a4.264,4.264,0,0,0-4.491,4.264V29.478a4.264,4.264,0,0,0-8.527,0V26.635a4.264,4.264,0,1,0-8.527,0V15.507A4.434,4.434,0,0,0,24.019,11a4.264,4.264,0,0,0-4.491,4.264V36.584c0-6.026-8.527-7.732-8.527-2.842v11.37A17.055,17.055,0,0,0,28.055,62.166h8.527A17.055,17.055,0,0,0,53.637,45.112V33.983A4.434,4.434,0,0,0,49.6,29.478Z" transform="translate(1.685 4.627)" fill="#00d563"/>
  </g>
</svg>
