<svg xmlns="http://www.w3.org/2000/svg" width="34.98" height="34.977" viewBox="0 0 34.98 34.977">
  <g id="web-security" transform="translate(0 -0.021)">
    <path id="Path_8369" data-name="Path 8369" d="M33.955.021H1.025A1.025,1.025,0,0,0,0,1.046V6.17H34.98V1.046A1.025,1.025,0,0,0,33.955.021Zm-10.316,4.1a1.025,1.025,0,1,1,1.025-1.025A1.027,1.027,0,0,1,23.639,4.117Zm4.1,0a1.025,1.025,0,1,1,1.025-1.025A1.027,1.027,0,0,1,27.738,4.117Zm4.1,0a1.025,1.025,0,1,1,1.025-1.025A1.027,1.027,0,0,1,31.837,4.117Z" transform="translate(0)" fill="#0d2b51"/>
    <path id="Path_8370" data-name="Path 8370" d="M0,140.235a1.025,1.025,0,0,0,1.025,1.025H8.039a11.116,11.116,0,0,1-.695-3.872v-6.724a3.08,3.08,0,0,1,2.046-2.9l7.071-2.51a3.074,3.074,0,0,1,2.057,0l7.071,2.51a3.08,3.08,0,0,1,2.046,2.9v6.725a11.116,11.116,0,0,1-.695,3.872h7.015a1.025,1.025,0,0,0,1.025-1.025V119.66H0Z" transform="translate(0 -111.465)" fill="#0d2b51"/>
    <path id="Path_8371" data-name="Path 8371" d="M153.011,231.542l-7.071-2.51a1.025,1.025,0,0,0-.686,0l-7.071,2.51a1.025,1.025,0,0,0-.682.966v6.725a9.165,9.165,0,0,0,7.964,9.067,1.023,1.023,0,0,0,.264,0,9.165,9.165,0,0,0,7.964-9.067v-6.725A1.025,1.025,0,0,0,153.011,231.542Zm-3.954,6.594-2.869,2.869a1.025,1.025,0,0,1-1.449,0l-1.537-1.537a1.025,1.025,0,0,1,1.449-1.449l.813.813,2.145-2.145a1.025,1.025,0,1,1,1.449,1.449Z" transform="translate(-128.107 -213.31)" fill="#00d563"/>
  </g>
</svg>
